<?xml version="1.0" encoding="utf-8"?><svg viewBox="0 0 30 30" xmlns="http://www.w3.org/2000/svg" xmlns:xlink="http://www.w3.org/1999/xlink"><style>:root>svg{display:none}:root>svg:target{display:block}</style><svg viewBox="0 0 16 24" id="arrow-down" xmlns="http://www.w3.org/2000/svg"><path d="M16 16l-1.41-1.41L9 20.17V0H7v20.17l-5.58-5.59L0 16l8 8 8-8z"/></svg><svg viewBox="0 0 24 16" id="arrow-right" xmlns="http://www.w3.org/2000/svg"><path d="M16.5 0l-1.41 1.41L20.67 7H.5v2h20.17l-5.59 5.58L16.5 16l8-8-8-8z"/></svg><svg viewBox="0 0 11 23" id="facebook"><path d="M8.992 3.819H11V.162C10.653.112 9.462 0 8.074 0 5.18 0 3.195 1.904 3.195 5.404v3.221H0v4.088h3.195V23h3.918V12.714h3.066l.486-4.088H7.112V5.809c0-1.181.305-1.99 1.88-1.99z"/></svg><svg viewBox="0 0 20 20" id="insta" xmlns="http://www.w3.org/2000/svg"><path d="M5.8 0h8.4A5.8 5.8 0 0120 5.8v8.4a5.8 5.8 0 01-5.8 5.8H5.8A5.8 5.8 0 010 14.2V5.8A5.8 5.8 0 015.8 0zm-.2 2A3.6 3.6 0 002 5.6v8.8A3.6 3.6 0 005.6 18h8.8a3.6 3.6 0 003.6-3.6V5.6A3.6 3.6 0 0014.4 2H5.6zm9.65 1.5a1.25 1.25 0 110 2.5 1.25 1.25 0 010-2.5zM10 5a5 5 0 110 10 5 5 0 010-10zm0 2a3 3 0 100 6 3 3 0 000-6z"/></svg><svg viewBox="0 0 14.33 14.34" id="search-loop" xmlns="http://www.w3.org/2000/svg"><path d="M13.564 14.34L8.801 9.575a5 5 0 11.332-7.896 5 5 0 01.848 6.717l4.762 4.763-1.178 1.178-.001.001zM5.904 2.166a3.333 3.333 0 102.43 1.053l.505.5-.568-.567-.01-.01a3.31 3.31 0 00-2.357-.976z"/></svg><svg fill="none" viewBox="0 0 30 30" id="swipe-left" xmlns="http://www.w3.org/2000/svg"><path d="M19.419 4.394L8.812 15 19.42 25.606l1.768-1.767L12.348 15l8.84-8.839-1.768-1.767z" fill="#fff"/></svg><svg fill="none" viewBox="0 0 14 22" id="swipe-right" xmlns="http://www.w3.org/2000/svg"><path d="M2.581 21.606L13.187 11 2.582.394.813 2.16 9.653 11l-8.84 8.839 1.768 1.767z" fill="#fff"/></svg><svg viewBox="0 0 20.92 17.42" id="twitter" xmlns="http://www.w3.org/2000/svg"><path d="M20.918 2.012a8.58 8.58 0 01-2.464.676A4.305 4.305 0 0020.34.314a8.591 8.591 0 01-2.725 1.041 4.292 4.292 0 00-7.313 3.914A12.184 12.184 0 011.456.787a4.271 4.271 0 00-.58 2.157 4.29 4.29 0 001.908 3.572 4.276 4.276 0 01-1.943-.537v.054c0 2.08 1.479 3.814 3.442 4.209a4.296 4.296 0 01-1.938.073 4.296 4.296 0 004.009 2.98 8.61 8.61 0 01-5.33 1.838c-.347 0-.688-.02-1.024-.06A12.147 12.147 0 006.579 17c7.894 0 12.21-6.54 12.21-12.21 0-.187-.004-.372-.012-.556a8.719 8.719 0 002.141-2.222z"/></svg></svg>